#N canvas 248 83 598 513 10;
#X declare -path list-abs/;
#X declare -path list-abs/;
#X declare -path list-abs/;
#X declare -lib mrpeach;
#X declare -path list-abs mac-libs;
#X obj 93 -10 udpreceive 7120;
#X floatatom 46 132 5 0 0 0 - - -;
#X floatatom 81 133 5 0 0 0 - - -;
#X floatatom 116 133 5 0 0 0 - - -;
#X obj 239 192 noise~;
#X obj 239 213 lop~ 5000;
#X obj 239 234 hip~ 10;
#X obj 39 225 expr ($f1/360)*2*3.14159265;
#X obj 68 355 *~;
#X obj 22 304 line~;
#X obj 104 354 *~;
#X obj 167 317 line~;
#X obj 67 426 dac~ 1 2;
#X obj 64 397 *~;
#X obj 257 328 dbtorms;
#X obj 257 349 pack f 5;
#X obj 257 370 line~;
#X obj 102 398 *~;
#X floatatom 257 306 5 0 0 0 - - -;
#X floatatom 326 362 5 0 0 0 - - -;
#X obj 22 283 pack f 50;
#X obj 167 296 pack f 50;
#X floatatom 100 273 5 0 0 0 - - -;
#X floatatom 242 284 5 0 0 0 - - -;
#X obj 39 200 + 45;
#X obj 39 252 sin;
#X obj 167 260 cos;
#X floatatom 87 208 5 0 0 0 - - -;
#X floatatom 169 130 5 0 0 0 - - -;
#X floatatom 204 131 5 0 0 0 - - -;
#X floatatom 239 131 5 0 0 0 - - -;
#N canvas 741 261 450 300 gemwin 0;
#X obj 52 18 inlet;
#X obj 93 15 inlet;
#X obj 12 21 inlet;
#X obj 64 267 gemwin;
#X obj 284 36 gemhead;
#X obj 284 83 world_light;
#X msg 26 161 view \$1 \$2 \$3 \$4 \$5;
#X obj 26 140 pack f f 4 0 0;
#X obj 135 16 inlet;
#X obj 179 14 inlet;
#N canvas 0 22 450 300 smooth 0;
#X obj 99 60 inlet;
#X obj 99 91 pack f 10;
#X obj 99 112 line;
#X obj 99 133 outlet;
#X obj 169 67 r smooth;
#X connect 0 0 1 0;
#X connect 1 0 2 0;
#X connect 2 0 3 0;
#X connect 4 0 1 1;
#X restore 12 83 pd smooth;
#N canvas 0 22 450 300 smooth 0;
#X obj 99 60 inlet;
#X obj 99 91 pack f 10;
#X obj 99 112 line;
#X obj 99 133 outlet;
#X obj 169 67 r smooth;
#X connect 0 0 1 0;
#X connect 1 0 2 0;
#X connect 2 0 3 0;
#X connect 4 0 1 1;
#X restore 42 102 pd smooth;
#N canvas 0 22 450 300 smooth 0;
#X obj 99 60 inlet;
#X obj 99 91 pack f 10;
#X obj 99 112 line;
#X obj 99 133 outlet;
#X obj 169 67 r smooth;
#X connect 0 0 1 0;
#X connect 1 0 2 0;
#X connect 2 0 3 0;
#X connect 4 0 1 1;
#X restore 68 117 pd smooth;
#X obj 312 159 s smooth;
#X msg 312 133 100;
#N canvas 0 22 450 300 smooth 0;
#X obj 99 60 inlet;
#X obj 99 91 pack f 10;
#X obj 99 112 line;
#X obj 99 133 outlet;
#X obj 169 67 r smooth;
#X connect 0 0 1 0;
#X connect 1 0 2 0;
#X connect 2 0 3 0;
#X connect 4 0 1 1;
#X restore 139 69 pd smooth;
#N canvas 0 22 450 300 smooth 0;
#X obj 99 60 inlet;
#X obj 99 91 pack f 10;
#X obj 99 112 line;
#X obj 99 133 outlet;
#X obj 169 67 r smooth;
#X connect 0 0 1 0;
#X connect 1 0 2 0;
#X connect 2 0 3 0;
#X connect 4 0 1 1;
#X restore 179 91 pd smooth;
#X obj 93 58 + -4;
#X obj 135 37 / 2;
#X obj 184 42 / 2;
#X obj 12 42 / -100;
#X obj 52 39 / -100;
#X obj 93 36 / 100;
#X text 151 162 for changing viewpoint;
#X msg 64 217 lighting 1;
#X obj 64 191 loadbang;
#X obj 88 239 r gemwin;
#X connect 0 0 21 0;
#X connect 1 0 22 0;
#X connect 2 0 20 0;
#X connect 4 0 5 0;
#X connect 7 0 6 0;
#X connect 8 0 18 0;
#X connect 9 0 19 0;
#X connect 10 0 7 0;
#X connect 11 0 7 1;
#X connect 12 0 7 2;
#X connect 14 0 13 0;
#X connect 15 0 7 4;
#X connect 16 0 7 3;
#X connect 17 0 12 0;
#X connect 18 0 15 0;
#X connect 19 0 16 0;
#X connect 20 0 10 0;
#X connect 21 0 11 0;
#X connect 22 0 17 0;
#X connect 24 0 3 0;
#X connect 25 0 24 0;
#X connect 26 0 3 0;
#X restore 52 169 pd gemwin;
#X obj 485 -12 gemhead;
#X obj 458 53 gemhead;
#X obj 459 137 sphere 0.5;
#X obj 485 21 sphere 0.4;
#X obj 459 87 translateXYZ 1 1 1;
#X obj 458 164 gemhead;
#X obj 458 222 cube 0.5;
#X obj 458 193 translateXYZ -2 1 1;
#X obj 463 268 gemhead;
#X obj 462 348 teapot;
#X obj 462 298 translateXYZ -2 -1 -1;
#N canvas 25 151 450 300 draw_circle_pan 0;
#X obj 157 81 gemhead;
#X obj 157 123 t a a;
#X obj 184 152 separator;
#X obj 184 203 circle 1;
#X msg 193 179 draw line;
#X obj 157 102 translateXYZ 2 -2 0;
#X obj 291 158 loadbang;
#X obj 74 209 circle 0.1;
#X obj 74 184 translateXYZ;
#X obj 61 7 inlet;
#X obj 61 70 * 6.28319;
#X floatatom 114 4 5 0 0 0 - - -;
#X obj 56 114 sin;
#X obj 87 116 cos;
#X obj 61 28 + 0;
#X obj 61 49 / -360;
#X connect 0 0 5 0;
#X connect 1 0 8 0;
#X connect 1 1 2 0;
#X connect 2 0 3 0;
#X connect 4 0 3 0;
#X connect 5 0 1 0;
#X connect 6 0 4 0;
#X connect 8 0 7 0;
#X connect 9 0 14 0;
#X connect 10 0 12 0;
#X connect 10 0 13 0;
#X connect 11 0 14 0;
#X connect 12 0 8 1;
#X connect 13 0 8 2;
#X connect 14 0 15 0;
#X connect 15 0 10 0;
#X restore 124 177 pd draw_circle_pan;
#N canvas 0 22 450 300 draw_tilt 0;
#X obj 145 55 inlet;
#X obj 145 76 / 90;
#X obj 225 35 gemhead;
#X msg 363 209 draw line;
#X obj 363 189 loadbang;
#X obj 225 66 translateXYZ 2 1.5 0;
#X obj 346 230 rectangle 0.2 1.5;
#X obj 225 87 t a a;
#X obj 225 108 separator;
#X obj 346 158 separator;
#X obj 224 196 rectangle 0.2 0.1;
#X obj 224 156 translateXYZ;
#X floatatom 193 135 5 0 0 0 - - -;
#X obj 145 97 * -1;
#X connect 0 0 1 0;
#X connect 1 0 13 0;
#X connect 2 0 5 0;
#X connect 3 0 6 0;
#X connect 4 0 3 0;
#X connect 5 0 7 0;
#X connect 7 0 8 0;
#X connect 7 1 9 0;
#X connect 8 0 11 0;
#X connect 9 0 6 0;
#X connect 11 0 10 0;
#X connect 13 0 11 2;
#X restore 304 110 pd draw_tilt;
#N canvas 251 170 615 504 draw_head 1;
#X obj 93 25 unpack f f f f f f;
#X obj 93 -16 r /head_pose;
#X obj 28 64 gemhead;
#X obj 30 201 rotateXYZ;
#X obj 36 96 translateXYZ;
#X obj 85 47 + 0;
#X obj 85 68 * 1;
#X obj 109 47 + 0;
#X obj 133 68 * 1;
#X obj 109 68 * 1;
#X obj 133 47 + 0;
#X obj 167 47 + 0;
#X obj 167 68 * 1;
#X obj 191 47 + 0;
#X obj 215 68 * 1;
#X obj 191 68 * 1;
#X obj 215 47 + 0;
#X obj 30 230 t a a a a;
#X obj 186 252 separator;
#X obj 186 273 sphere 1 100;
#X obj 68 253 separator;
#X obj 68 274 color 1 1 0;
#X floatatom 80 303 5 0 0 0 - - -;
#X floatatom 115 303 5 0 0 0 - - -;
#X floatatom 153 302 5 0 0 0 - - -;
#X obj 68 349 sphere 0.3;
#X obj 68 328 translateXYZ 0.97 0.12 0.29;
#X floatatom 80 423 5 0 0 0 - - -;
#X floatatom 115 423 5 0 0 0 - - -;
#X floatatom 153 422 5 0 0 0 - - -;
#X obj 68 469 sphere 0.3;
#X obj 68 384 separator;
#X obj 68 405 color 1 1 0;
#X obj 68 448 translateXYZ -0.97 0.12 0.29;
#X floatatom -99 423 5 0 0 0 - - -;
#X floatatom -64 423 5 0 0 0 - - -;
#X floatatom -26 422 5 0 0 0 - - -;
#X obj -111 384 separator;
#X obj -111 405 color 0 0 1;
#X obj -111 469 sphere 0.1 100;
#X obj 47 163 median-3;
#X obj 104 164 median-3;
#X obj 167 166 median-3;
#X text -79 366 nose;
#X obj -111 448 translateXYZ 0 0 1.02;
#X obj 93 5 route 0;
#X connect 0 0 5 0;
#X connect 0 1 7 0;
#X connect 0 2 10 0;
#X connect 0 3 11 0;
#X connect 0 4 13 0;
#X connect 0 5 16 0;
#X connect 1 0 45 0;
#X connect 2 0 3 0;
#X connect 3 0 17 0;
#X connect 5 0 6 0;
#X connect 6 0 4 1;
#X connect 7 0 9 0;
#X connect 8 0 4 3;
#X connect 9 0 4 2;
#X connect 10 0 8 0;
#X connect 11 0 12 0;
#X connect 12 0 40 0;
#X connect 13 0 15 0;
#X connect 14 0 42 0;
#X connect 15 0 41 0;
#X connect 16 0 14 0;
#X connect 17 0 37 0;
#X connect 17 1 31 0;
#X connect 17 2 20 0;
#X connect 17 3 18 0;
#X connect 18 0 19 0;
#X connect 20 0 21 0;
#X connect 21 0 26 0;
#X connect 22 0 26 1;
#X connect 23 0 26 2;
#X connect 24 0 26 3;
#X connect 26 0 25 0;
#X connect 27 0 33 1;
#X connect 28 0 33 2;
#X connect 29 0 33 3;
#X connect 31 0 32 0;
#X connect 32 0 33 0;
#X connect 33 0 30 0;
#X connect 34 0 44 1;
#X connect 35 0 44 2;
#X connect 36 0 44 3;
#X connect 37 0 38 0;
#X connect 38 0 44 0;
#X connect 40 0 3 1;
#X connect 41 0 3 2;
#X connect 42 0 3 3;
#X connect 44 0 39 0;
#X connect 45 0 0 0;
#X restore 277 37 pd draw_head;
#X obj 202 68 s /head_pose;
#X obj 93 32 routeOSC /head_pose;
#X obj 93 11 unpackOSC;
#X obj 250 -2 import mrpeach;
#X obj 405 445 s gemwin;
#X msg 403 402 create \, 1;
#X msg 477 406 destroy;
#X text 219 87 ID \, x \, y \, z \, pitch \, yaw \, roll;
#X obj 93 86 unpack f f f f f f f;
#X obj 93 53 route 0;
#X text 33 55 USER 0;
#X obj 389 478 declare -path list-abs mac-libs;
#X connect 0 0 48 0;
#X connect 1 0 31 0;
#X connect 2 0 31 1;
#X connect 3 0 31 2;
#X connect 4 0 5 0;
#X connect 5 0 6 0;
#X connect 6 0 10 0;
#X connect 6 0 8 0;
#X connect 7 0 25 0;
#X connect 7 0 26 0;
#X connect 8 0 13 0;
#X connect 9 0 8 1;
#X connect 10 0 17 0;
#X connect 11 0 10 1;
#X connect 13 0 12 0;
#X connect 14 0 15 0;
#X connect 14 0 19 0;
#X connect 15 0 16 0;
#X connect 16 0 13 1;
#X connect 16 0 17 1;
#X connect 17 0 12 1;
#X connect 18 0 14 0;
#X connect 20 0 9 0;
#X connect 21 0 11 0;
#X connect 24 0 7 0;
#X connect 24 0 27 0;
#X connect 25 0 20 0;
#X connect 25 0 22 0;
#X connect 26 0 21 0;
#X connect 26 0 23 0;
#X connect 28 0 31 3;
#X connect 29 0 31 4;
#X connect 36 0 34 0;
#X connect 39 0 38 0;
#X connect 42 0 41 0;
#X connect 47 0 46 0;
#X connect 47 0 55 0;
#X connect 48 0 47 0;
#X connect 51 0 50 0;
#X connect 52 0 50 0;
#X connect 54 0 43 0;
#X connect 54 0 1 0;
#X connect 54 1 44 0;
#X connect 54 1 2 0;
#X connect 54 2 3 0;
#X connect 54 3 28 0;
#X connect 54 4 29 0;
#X connect 54 5 30 0;
#X connect 55 0 54 0;
