#N struct 1075-f float x;
#N canvas 342 263 476 374 10;
#X declare -path list-abs/;
#X text 235 16 median filter;
#X obj 70 58 inlet;
#X obj 70 152 f 0;
#X obj 102 152 f 0;
#X obj 134 148 f 0;
#X obj 102 129 f 0;
#X obj 134 128 f 0;
#X obj 70 79 t f b b;
#X obj 134 169 t f f;
#X obj 295 56 declare -path list-abs/;
#X obj 70 212 pack f f f;
#X obj 70 238 list-sort 0;
#X obj 70 259 unpack f f f;
#X obj 104 285 outlet;
#X connect 1 0 7 0;
#X connect 2 0 5 1;
#X connect 2 0 10 0;
#X connect 3 0 6 1;
#X connect 3 0 10 1;
#X connect 4 0 8 0;
#X connect 5 0 3 0;
#X connect 6 0 4 0;
#X connect 7 0 2 0;
#X connect 7 1 5 0;
#X connect 7 2 6 0;
#X connect 8 0 10 2;
#X connect 10 0 11 0;
#X connect 11 0 12 0;
#X connect 12 1 13 0;
