#N struct 1057-f float x;
#N canvas 342 263 476 374 10;
#X declare -path list-abs/;
#X text 235 16 median filter;
#X obj 70 58 inlet;
#X obj 70 152 f 0;
#X obj 102 152 f 0;
#X obj 134 148 f 0;
#X obj 102 129 f 0;
#X obj 134 128 f 0;
#X obj 295 56 declare -path list-abs/;
#X obj 70 238 list-sort 0;
#X obj 106 297 outlet;
#X obj 70 212 pack f f f f f;
#X obj 70 259 unpack f f f f f;
#X obj 164 149 f 0;
#X obj 164 129 f 0;
#X obj 197 146 f 0;
#X obj 197 126 f 0;
#X obj 70 79 t f b b b b;
#X connect 1 0 16 0;
#X connect 2 0 5 1;
#X connect 2 0 10 0;
#X connect 3 0 6 1;
#X connect 3 0 10 1;
#X connect 4 0 10 2;
#X connect 4 0 13 1;
#X connect 5 0 3 0;
#X connect 6 0 4 0;
#X connect 8 0 11 0;
#X connect 10 0 8 0;
#X connect 11 2 9 0;
#X connect 12 0 15 1;
#X connect 12 0 10 3;
#X connect 13 0 12 0;
#X connect 14 0 10 4;
#X connect 15 0 14 0;
#X connect 16 0 2 0;
#X connect 16 1 5 0;
#X connect 16 2 6 0;
#X connect 16 3 13 0;
#X connect 16 4 15 0;
